<?xml version="1.0" standalone="no"?>
<!DOCTYPE svg PUBLIC "-//W3C//DTD SVG 20010904//EN"
 "http://www.w3.org/TR/2001/REC-SVG-20010904/DTD/svg10.dtd">
<svg version="1.0" xmlns="http://www.w3.org/2000/svg"
 width="2000.000000pt" height="2000.000000pt" viewBox="0 0 2000.000000 2000.000000"
 preserveAspectRatio="xMidYMid meet">
<metadata>
Created by potrace 1.14, written by Peter Selinger 2001-2017
</metadata>
<g transform="translate(0.000000,2000.000000) scale(0.100000,-0.100000)"
fill="#000000" stroke="none">
<path d="M0 17050 l0 -2950 40 0 c29 0 40 4 40 15 0 13 33 15 240 15 l240 0 0
25 0 25 160 0 c136 0 160 2 160 15 0 12 16 15 80 15 79 0 80 0 80 25 l0 25
120 0 c100 0 120 3 120 15 0 12 16 15 80 15 79 0 80 0 80 25 0 25 1 25 80 25
64 0 80 3 80 15 0 11 11 15 40 15 36 0 40 3 40 25 0 25 1 25 80 25 64 0 80 3
80 15 0 12 16 15 80 15 64 0 80 3 80 15 0 11 -11 15 -40 15 -22 0 -40 5 -40
10 0 6 33 10 80 10 64 0 80 3 80 15 0 11 11 15 40 15 29 0 40 4 40 15 0 11
-11 15 -40 15 -22 0 -40 5 -40 10 0 6 33 10 80 10 64 0 80 3 80 15 0 11 11 15
40 15 36 0 40 3 40 25 0 23 4 25 40 25 29 0 40 4 40 15 0 11 11 15 40 15 36 0
40 3 40 25 0 23 4 25 40 25 29 0 40 4 40 15 0 11 11 15 40 15 36 0 40 3 40 25
0 23 4 25 40 25 38 0 40 2 40 30 0 28 2 30 40 30 22 0 40 5 40 10 0 6 18 10
40 10 l40 0 0 40 0 40 80 0 80 0 0 40 0 40 40 0 c22 0 40 -4 40 -10 0 -5 7
-10 15 -10 11 0 15 11 15 40 0 29 -4 40 -15 40 -8 0 -15 5 -15 10 0 6 18 10
40 10 22 0 40 -4 40 -10 0 -5 18 -10 40 -10 l40 0 0 40 0 40 40 0 c36 0 40 3
40 25 0 23 4 25 40 25 29 0 40 4 40 15 0 11 -11 15 -40 15 -22 0 -40 5 -40 10
0 6 18 10 40 10 29 0 40 4 40 15 0 11 11 15 40 15 29 0 40 4 40 15 0 8 -4 15
-10 15 -5 0 -10 18 -10 40 0 22 5 40 10 40 6 0 10 -13 10 -30 0 -28 2 -30 40
-30 l40 0 0 40 0 40 40 0 c38 0 40 2 40 30 0 28 2 30 40 30 l40 0 0 40 c0 38
2 40 30 40 28 0 30 2 30 40 l0 40 50 0 50 0 0 40 c0 23 5 40 11 40 7 0 23 12
36 27 19 20 27 23 33 13 6 -10 9 -7 12 10 1 13 8 25 13 27 6 2 10 -25 11 -67
1 -44 -3 -68 -10 -67 -6 1 -12 -8 -14 -20 -5 -33 27 -18 34 16 3 14 9 34 15
43 12 23 11 28 -2 28 -5 0 -7 -4 -4 -10 3 -5 1 -10 -4 -10 -6 0 -11 12 -11 26
0 19 4 25 15 21 8 -4 17 -2 20 3 4 6 -1 10 -10 10 -12 0 -15 5 -11 16 3 9 6
34 6 56 0 30 4 39 14 35 10 -4 13 5 11 34 -1 22 2 42 8 46 6 4 8 0 4 -11 -4
-10 -3 -15 4 -11 5 4 16 1 24 -5 12 -10 15 -8 15 10 0 13 3 20 7 16 10 -9 12
-76 2 -76 -4 0 -9 -7 -13 -15 -3 -9 0 -15 10 -15 8 0 12 5 9 11 -4 6 2 13 14
16 17 4 21 13 21 50 0 34 6 49 25 67 14 13 25 28 25 35 0 6 14 11 30 11 28 0
30 2 30 40 l0 40 50 0 50 0 0 40 c0 29 4 40 15 40 11 0 15 11 15 40 l0 40 40
0 40 0 0 40 c0 29 4 40 15 40 11 0 15 11 15 40 0 22 5 40 10 40 6 0 10 -18 10
-40 0 -29 4 -40 15 -40 11 0 15 11 15 40 0 29 4 40 15 40 11 0 15 11 15 40 l0
40 40 0 40 0 0 80 c0 44 4 80 9 80 5 0 11 -6 13 -12 3 -8 9 -4 17 10 18 34 17
168 -2 198 -3 5 -8 42 -11 83 -4 41 -9 79 -13 84 -3 6 -7 24 -9 41 -2 17 -5
45 -8 62 -14 101 -31 202 -47 294 -10 58 -21 120 -24 138 -3 18 -21 126 -40
240 -18 114 -46 281 -60 372 -15 90 -31 174 -36 187 l-9 23 513 1 c281 0 535
4 562 9 l50 7 -42 2 c-24 0 -43 6 -43 11 0 6 7 10 15 10 11 0 15 11 15 40 0
29 4 40 15 40 13 0 15 20 15 120 0 73 4 120 10 120 6 0 10 -18 10 -40 0 -29 4
-40 15 -40 13 0 15 20 15 120 0 100 3 120 15 120 13 0 15 24 15 160 0 100 4
160 10 160 6 0 10 -18 10 -40 0 -29 4 -40 15 -40 12 0 15 16 15 80 0 64 -3 80
-15 80 -11 0 -15 11 -15 40 0 29 4 40 15 40 13 0 15 20 15 120 0 100 3 120 15
120 13 0 15 24 15 160 l0 160 -2870 0 -2870 0 0 -2950z m4741 -257 c-12 -20
-14 -14 -5 12 4 9 9 14 11 11 3 -2 0 -13 -6 -23z"/>
<path d="M6860 19960 c0 -29 -4 -40 -15 -40 -11 0 -15 -11 -15 -40 0 -29 -4
-40 -15 -40 -11 0 -15 -11 -15 -40 0 -29 4 -40 15 -40 11 0 15 -11 15 -40 0
-29 -4 -40 -15 -40 -13 0 -15 -24 -15 -160 0 -100 4 -160 10 -160 6 0 10 -18
10 -40 0 -22 -4 -40 -10 -40 -6 0 -10 -47 -10 -120 l0 -120 40 0 40 0 0 -160
0 -160 -40 0 -40 0 0 80 0 80 -40 0 -40 0 0 -160 0 -160 40 0 41 0 -2 -50 c-2
-44 -5 -50 -25 -50 -12 0 -24 3 -26 8 -1 4 -46 4 -98 1 l-95 -5 85 -3 c145 -6
142 -4 156 -91 6 -41 19 -115 29 -165 22 -116 44 -249 50 -300 2 -22 7 -50 10
-63 11 -47 37 -198 41 -242 3 -43 13 -103 35 -215 6 -27 26 -144 45 -260 18
-115 39 -237 44 -270 6 -33 33 -195 61 -360 27 -165 56 -334 64 -376 8 -42 17
-98 20 -125 4 -27 22 -139 41 -249 86 -506 219 -1289 249 -1475 19 -113 54
-322 79 -465 25 -143 66 -381 91 -530 25 -148 81 -481 125 -740 44 -258 116
-681 159 -940 44 -258 98 -573 120 -700 21 -126 44 -261 50 -300 6 -38 25
-146 41 -240 37 -203 174 -1014 235 -1385 24 -146 53 -319 65 -385 22 -122
128 -749 226 -1335 30 -179 74 -442 99 -585 25 -143 60 -354 79 -470 19 -115
76 -451 126 -745 50 -294 122 -719 160 -945 136 -804 190 -1124 235 -1390 25
-148 79 -470 121 -715 94 -559 133 -789 139 -817 l5 -23 -1145 0 c-799 0
-1145 3 -1145 11 0 5 -36 225 -81 487 -76 453 -117 690 -278 1637 -38 226
-102 599 -141 830 -39 231 -93 548 -120 705 -27 157 -70 407 -95 555 -120 711
-175 1038 -190 1120 -44 247 -68 388 -80 470 -8 50 -30 182 -50 295 -19 113
-69 403 -110 645 -41 242 -90 532 -110 645 -19 113 -42 248 -50 300 -8 52 -28
174 -45 270 -17 96 -46 270 -65 385 -20 116 -56 329 -81 475 -42 248 -80 472
-239 1415 -35 209 -73 434 -85 500 -11 66 -48 278 -80 470 -153 901 -220 1291
-271 1575 -17 96 -39 227 -50 290 -18 112 -40 234 -59 335 -6 28 -12 65 -14
83 -2 19 -7 37 -12 40 -4 4 -4 -8 -1 -25 l6 -33 -44 0 -45 0 0 40 0 40 43 0
43 0 -4 38 c-3 20 -11 40 -18 45 -7 4 -10 15 -7 23 3 9 1 19 -4 23 -6 3 -13
31 -16 61 -5 41 -4 48 3 30 9 -22 9 -21 5 9 -3 18 -5 42 -5 52 0 9 -6 24 -13
31 -8 7 -16 20 -19 28 -3 8 -5 -3 -5 -24 1 -21 3 -34 5 -27 8 23 22 10 21 -21
0 -28 -2 -30 -9 -13 -11 24 -2 -63 11 -115 12 -45 11 -60 -1 -60 -5 0 -10 10
-10 23 0 12 -5 29 -11 37 -7 11 -9 7 -8 -20 1 -19 1 -54 0 -77 l-1 -43 -40 0
-40 0 0 -40 0 -40 -40 0 -40 0 0 -40 0 -40 -40 0 -40 0 0 -40 0 -40 -40 0 -40
0 0 -40 0 -40 -40 0 -40 0 0 -40 0 -40 -40 0 -40 0 0 -80 0 -80 -39 0 c-33 0
-40 -4 -44 -22 -2 -13 -4 7 -3 43 1 50 -3 69 -17 83 -9 10 -17 25 -17 34 0 15
-2 15 -10 2 -13 -20 -13 -33 0 -25 6 3 10 -3 10 -13 0 -11 7 -25 15 -32 21
-17 19 -36 -7 -70 -17 -23 -19 -33 -10 -42 9 -9 12 -6 13 12 0 14 3 19 6 12 3
-7 0 -26 -5 -42 -7 -18 -7 -32 -1 -35 5 -4 9 2 10 12 0 12 2 14 6 5 3 -8 0
-25 -7 -38 -10 -18 -11 -30 -2 -49 15 -33 15 -38 0 -29 -8 5 -9 2 -5 -10 4
-10 7 -20 7 -22 0 -3 5 -2 10 1 6 3 10 1 10 -4 0 -6 -6 -11 -12 -11 -9 0 -8
-4 2 -10 12 -8 12 -10 1 -10 -9 0 -10 -4 -4 -12 6 -7 11 -38 12 -68 1 -30 6
-57 12 -58 5 -2 7 -7 4 -12 -3 -4 0 -30 6 -56 5 -27 10 -59 10 -72 -1 -12 6
-25 14 -29 11 -4 13 -9 5 -18 -7 -9 -4 -49 11 -136 11 -68 23 -131 26 -139 4
-8 5 -21 4 -28 -1 -7 3 -38 9 -68 6 -30 13 -73 15 -97 9 -87 9 -90 206 -1297
38 -234 71 -446 74 -472 3 -37 104 -653 140 -853 3 -16 7 -50 10 -75 9 -85 13
-113 84 -543 39 -238 87 -533 107 -657 20 -124 53 -326 74 -450 39 -227 51
-304 55 -350 1 -14 4 -27 5 -30 1 -3 2 -9 1 -13 -2 -9 0 -20 74 -452 31 -181
58 -352 60 -380 3 -27 36 -239 75 -470 40 -231 71 -437 71 -457 0 -21 5 -40
10 -43 5 -4 7 -10 4 -15 -3 -4 24 -181 60 -391 70 -418 76 -454 77 -484 1 -20
22 -152 93 -569 19 -115 35 -213 35 -217 0 -5 -278 -9 -619 -9 l-618 0 -7 -52
c-4 -28 -16 -95 -26 -147 -24 -128 -59 -327 -65 -376 -3 -22 -7 -56 -9 -75 -3
-19 -35 -199 -71 -400 -63 -347 -70 -393 -80 -484 -3 -21 -20 -124 -39 -230
-19 -105 -44 -245 -56 -311 -12 -66 -27 -151 -35 -190 -8 -38 -17 -97 -20
-130 -3 -33 -23 -159 -45 -280 -96 -533 -109 -613 -114 -660 -5 -48 -35 -232
-57 -343 l-10 -52 -1145 0 c-933 0 -1144 2 -1144 13 0 7 11 76 25 153 14 76
28 164 31 194 3 30 35 217 70 415 61 338 74 419 76 455 1 16 47 284 103 595
20 110 38 220 40 245 2 25 33 211 69 414 36 203 64 371 61 374 -2 3 0 13 6 23
5 11 11 40 13 66 4 47 60 382 110 648 13 72 24 137 25 145 2 46 14 122 40 270
17 91 48 265 70 388 22 123 38 229 35 237 -3 7 0 16 5 20 6 3 9 10 6 15 -3 4
4 58 15 119 11 62 18 116 15 121 -3 4 -1 10 3 12 7 3 90 454 98 533 1 16 3 30
4 30 1 0 4 16 5 35 3 33 68 405 121 688 13 74 22 138 19 142 -3 5 -1 11 4 15
6 3 10 18 10 33 -1 33 4 72 30 217 11 61 42 237 70 393 28 156 50 286 50 290
-1 4 0 9 1 12 1 3 3 21 5 40 3 31 83 489 134 765 10 55 19 107 19 115 0 33 7
76 111 660 22 124 42 250 45 280 4 30 13 91 21 135 20 111 115 664 170 995 26
151 55 320 66 375 11 55 22 123 24 151 2 27 18 131 35 230 17 98 35 202 40
229 5 28 13 70 19 95 5 25 12 68 15 95 3 28 10 68 15 91 6 22 13 69 16 105 3
35 12 95 19 134 8 38 12 75 9 81 -2 7 0 22 7 33 6 12 12 38 15 58 2 21 7 47
11 57 5 14 4 17 -5 12 -8 -5 -7 3 4 23 9 18 13 40 10 51 -3 10 -1 21 5 25 6 4
9 14 6 22 -3 8 -3 20 1 26 5 7 9 21 10 32 0 11 4 31 8 45 l7 25 -21 -25 c-11
-14 -21 -20 -21 -14 0 6 9 19 20 29 20 19 28 41 10 30 -5 -3 -10 -1 -10 4 0 6
3 11 8 11 12 0 32 53 32 87 0 32 -1 33 -40 33 l-40 0 0 40 0 40 40 0 c25 0 40
-5 41 -12 1 -34 21 43 21 84 0 26 3 46 7 44 3 -2 4 15 3 39 -4 46 -32 74 -32
32 0 -18 2 -19 10 -7 7 12 10 8 10 -15 0 -16 -4 -37 -9 -44 -5 -8 -6 -22 -2
-30 4 -9 4 -32 0 -51 l-6 -35 -2 38 c-1 36 -2 37 -41 37 l-40 0 0 -40 0 -40
-40 0 -40 0 0 -80 0 -80 -40 0 -40 0 0 40 0 40 -40 0 -40 0 0 -40 0 -40 -80 0
-80 0 0 -40 0 -40 -80 0 -80 0 0 -40 0 -40 -40 0 c-29 0 -40 -4 -40 -15 0 -11
-11 -15 -40 -15 -36 0 -40 -2 -40 -25 0 -22 -4 -25 -40 -25 -29 0 -40 -4 -40
-15 0 -11 -11 -15 -40 -15 -36 0 -40 -2 -40 -25 0 -25 -1 -25 -80 -25 l-80 0
0 -40 0 -40 40 0 40 0 0 -40 0 -40 -80 0 -80 0 0 40 0 40 -40 0 -40 0 0 -40 0
-40 40 0 40 0 0 -40 0 -40 -80 0 -80 0 0 40 0 40 -80 0 -80 0 0 -40 0 -40 40
0 40 0 0 -40 0 -40 -80 0 -80 0 0 40 0 40 -80 0 -80 0 0 -40 0 -40 40 0 40 0
0 -40 0 -40 -80 0 -80 0 0 40 0 40 -80 0 c-64 0 -80 -3 -80 -15 0 -11 -11 -15
-40 -15 -36 0 -40 -2 -40 -25 0 -25 1 -25 80 -25 l80 0 0 -40 0 -40 -120 0
-120 0 0 40 0 40 -80 0 c-64 0 -80 -3 -80 -15 0 -11 -11 -15 -40 -15 -36 0
-40 -2 -40 -25 0 -25 1 -25 80 -25 l80 0 0 -40 0 -40 -120 0 -120 0 0 40 0 40
-40 0 c-29 0 -40 -4 -40 -15 0 -11 -11 -15 -40 -15 -29 0 -40 4 -40 15 0 12
-16 15 -80 15 l-80 0 0 -30 c0 -28 -2 -30 -40 -30 -22 0 -40 -4 -40 -10 0 -6
47 -10 120 -10 l120 0 0 -40 0 -40 -160 0 -160 0 0 40 0 40 -360 0 c-313 0
-360 -2 -360 -15 0 -11 -11 -15 -40 -15 -36 0 -40 -2 -40 -25 l0 -25 240 0
240 0 0 -40 0 -40 -240 0 -240 0 0 -6440 0 -6440 10000 0 10000 0 0 10000 0
10000 -6520 0 -6520 0 0 -360 0 -360 -55 0 -55 0 0 40 c0 29 4 40 15 40 13 0
15 42 15 320 0 207 -4 320 -10 320 -5 0 -10 -18 -10 -40z m5780 -4678 l0
-3159 842 -6 c463 -4 1232 -7 1710 -7 l868 0 0 -2110 0 -2110 -1710 0 -1710 0
0 -3165 0 -3165 -1139 0 c-902 0 -1140 3 -1143 13 -2 6 -5 3804 -7 8440 l-3
8427 1146 0 1146 0 0 -3158z m5690 1048 l0 -2110 -2550 -1 c-1402 -1 -2556 -2
-2562 -3 -10 -1 -14 429 -16 2112 l-2 2112 2565 0 2565 0 0 -2110z m-11500
1980 c0 -5 -4 -10 -10 -10 -5 0 -10 5 -10 10 0 6 5 10 10 10 6 0 10 -4 10 -10z
m27 -52 c-2 -13 -4 -3 -4 22 0 25 2 35 4 23 2 -13 2 -33 0 -45z m20 -25 c-3
-10 -5 -4 -5 12 0 17 2 24 5 18 2 -7 2 -21 0 -30z m-4 -68 c5 -28 4 -34 -3
-20 -8 19 -14 73 -6 64 2 -2 6 -22 9 -44z m-15 -35 l0 -25 -8 25 c-4 14 -8 36
-8 50 l0 25 8 -25 c4 -14 8 -36 8 -50z m19 -132 c-3 -7 -5 -2 -5 12 0 14 2 19
5 13 2 -7 2 -19 0 -25z m60 -190 c-3 -7 -5 -2 -5 12 0 14 2 19 5 13 2 -7 2
-19 0 -25z m-3 -124 c3 -8 2 -12 -4 -9 -6 3 -10 10 -10 16 0 14 7 11 14 -7z
m-1974 -2684 l0 -40 -40 0 -40 0 0 -40 0 -40 -40 0 -40 0 0 -40 0 -40 -40 0
-40 0 0 -40 0 -40 -40 0 c-40 0 -40 0 -40 -39 0 -33 4 -40 22 -43 22 -3 22 -3
2 -22 -19 -20 -19 -20 -22 2 -3 18 -10 22 -43 22 -39 0 -39 0 -39 40 l0 40 40
0 40 0 0 40 0 40 40 0 40 0 0 40 0 40 40 0 40 0 0 40 0 40 40 0 40 0 0 40 0
40 40 0 40 0 0 -40z m87 -52 c-3 -7 -5 -2 -5 12 0 14 2 19 5 13 2 -7 2 -19 0
-25z m26 -58 c4 -30 3 -38 -3 -25 -8 19 -9 18 -9 -4 -1 -31 -13 -19 -17 16 -2
21 -1 24 6 13 7 -11 10 -6 10 19 0 45 6 37 13 -19z m-22 -101 c-5 -13 -10 -19
-10 -12 -1 15 10 45 15 40 3 -2 0 -15 -5 -28z m-651 -375 c0 -14 -4 -23 -9
-20 -5 3 -7 15 -4 26 7 28 13 25 13 -6z m57 -306 c-3 -7 -5 -2 -5 12 0 14 2
19 5 13 2 -7 2 -19 0 -25z m-937 -228 l0 -40 -40 0 -40 0 0 40 0 40 40 0 40 0
0 -40z m203 23 c-7 -2 -13 -12 -13 -20 0 -9 -3 -14 -6 -10 -10 10 4 37 18 36
10 0 10 -2 1 -6z m-30 -48 c4 -8 3 -16 -1 -19 -4 -3 -9 4 -9 15 -2 23 3 25 10
4z m-333 -55 l0 -40 -40 0 -40 0 0 40 0 40 40 0 40 0 0 -40z m-160 -80 l0 -40
-40 0 -40 0 0 -40 0 -40 -80 0 -80 0 0 40 0 40 80 0 80 0 0 40 0 40 40 0 40 0
0 -40z m497 -2 c-3 -8 -6 -5 -6 6 -1 11 2 17 5 13 3 -3 4 -12 1 -19z m-817
-158 l0 -40 -40 0 -40 0 0 40 0 40 40 0 40 0 0 -40z m747 -152 c-3 -8 -6 -5
-6 6 -1 11 2 17 5 13 3 -3 4 -12 1 -19z m14703 -9738 l0 -2110 -2565 0 -2565
0 0 2110 0 2110 2565 0 2565 0 0 -2110z"/>
<path d="M6620 18840 c0 -22 5 -40 10 -40 6 0 10 18 10 40 0 22 -4 40 -10 40
-5 0 -10 -18 -10 -40z"/>
<path d="M6538 18443 c34 -2 90 -2 125 0 34 2 6 3 -63 3 -69 0 -97 -1 -62 -3z"/>
<path d="M4756 16723 c-5 -34 -12 -50 -20 -47 -8 3 -12 -7 -13 -31 -1 -19 3
-35 8 -35 8 0 13 14 11 31 -1 4 6 6 16 5 13 -1 17 8 17 39 1 22 -2 52 -5 65
-5 20 -8 15 -14 -27z m11 -65 c-3 -7 -5 -2 -5 12 0 14 2 19 5 13 2 -7 2 -19 0
-25z"/>
<path d="M4801 16494 c0 -11 3 -14 6 -6 3 7 2 16 -1 19 -3 4 -6 -2 -5 -13z"/>
<path d="M4811 16444 c0 -11 3 -14 6 -6 3 7 2 16 -1 19 -3 4 -6 -2 -5 -13z"/>
<path d="M4827 16346 c-4 -10 -5 -21 -2 -24 9 -9 17 6 13 25 -3 17 -4 17 -11
-1z"/>
<path d="M4822 16280 c0 -14 2 -19 5 -12 2 6 2 18 0 25 -3 6 -5 1 -5 -13z"/>
<path d="M4802 16260 c0 -14 2 -19 5 -12 2 6 2 18 0 25 -3 6 -5 1 -5 -13z"/>
<path d="M4893 15940 c0 -57 2 -67 8 -41 4 19 4 53 0 75 -7 34 -8 29 -8 -34z"/>
<path d="M4120 15940 c0 -5 5 -10 10 -10 6 0 10 5 10 10 0 6 -4 10 -10 10 -5
0 -10 -4 -10 -10z"/>
<path d="M4140 15864 c0 -8 5 -12 10 -9 6 4 8 11 5 16 -9 14 -15 11 -15 -7z"/>
<path d="M4911 15854 c0 -11 3 -14 6 -6 3 7 2 16 -1 19 -3 4 -6 -2 -5 -13z"/>
<path d="M4922 15795 c0 -16 2 -22 5 -12 2 9 2 23 0 30 -3 6 -5 -1 -5 -18z"/>
<path d="M4902 15780 c0 -8 4 -26 8 -40 6 -20 8 -21 8 -5 0 11 -3 29 -8 40 -5
12 -8 14 -8 5z"/>
<path d="M4003 15737 c-1 -26 0 -28 7 -12 11 26 12 45 3 45 -5 0 -9 -15 -10
-33z"/>
<path d="M4931 15722 c2 -23 6 -42 10 -42 8 0 0 70 -8 80 -2 2 -3 -15 -2 -38z"/>
<path d="M4210 15740 c0 -5 5 -10 11 -10 5 0 7 5 4 10 -3 6 -8 10 -11 10 -2 0
-4 -4 -4 -10z"/>
<path d="M4891 15694 c0 -11 3 -14 6 -6 3 7 2 16 -1 19 -3 4 -6 -2 -5 -13z"/>
<path d="M4181 15638 c-1 -10 6 -18 14 -18 8 0 15 5 15 11 0 5 -4 8 -9 5 -5
-4 -12 0 -14 6 -3 8 -6 6 -6 -4z"/>
<path d="M4020 15631 c0 -5 5 -13 10 -16 6 -3 10 -2 10 4 0 5 -4 13 -10 16 -5
3 -10 2 -10 -4z"/>
<path d="M4005 15580 c3 -5 10 -10 16 -10 5 0 9 5 9 10 0 6 -7 10 -16 10 -8 0
-12 -4 -9 -10z"/>
<path d="M4186 15581 c9 -9 34 -9 34 -1 0 5 -9 8 -20 7 -10 -1 -17 -3 -14 -6z"/>
<path d="M4962 15550 c0 -14 2 -19 5 -12 2 6 2 18 0 25 -3 6 -5 1 -5 -13z"/>
<path d="M4194 15529 c2 -15 20 -13 24 3 3 10 2 10 -6 -1 -7 -9 -11 -10 -15
-2 -4 7 -5 8 -3 0z"/>
<path d="M4963 15315 c0 -22 2 -30 4 -17 2 12 2 30 0 40 -3 9 -5 -1 -4 -23z"/>
<path d="M4231 15324 c0 -11 3 -14 6 -6 3 7 2 16 -1 19 -3 4 -6 -2 -5 -13z"/>
<path d="M3942 15311 c-11 -7 -11 -9 2 -14 10 -4 16 -1 16 8 0 17 -1 17 -18 6z"/>
<path d="M3966 15255 c-3 -9 -5 -29 -5 -43 1 -20 3 -17 9 13 8 43 7 57 -4 30z"/>
<path d="M4274 15185 c8 -8 18 -15 22 -15 3 0 1 7 -6 15 -7 8 -17 15 -22 15
-5 0 -3 -7 6 -15z"/>
<path d="M3931 15154 c0 -11 3 -14 6 -6 3 7 2 16 -1 19 -3 4 -6 -2 -5 -13z"/>
<path d="M4250 15161 c0 -5 5 -13 10 -16 6 -3 10 -2 10 4 0 5 -4 13 -10 16 -5
3 -10 2 -10 -4z"/>
<path d="M4300 15130 c0 -5 5 -10 11 -10 5 0 7 5 4 10 -3 6 -8 10 -11 10 -2 0
-4 -4 -4 -10z"/>
<path d="M4275 15050 c4 -67 4 -67 20 -67 11 0 15 8 13 21 -2 12 -10 20 -17
18 -8 -2 -11 3 -8 13 4 8 2 25 -2 37 -7 17 -8 12 -6 -22z"/>
<path d="M4290 14891 c0 -6 4 -13 10 -16 6 -3 7 1 4 9 -7 18 -14 21 -14 7z"/>
<path d="M3883 14843 c-14 -5 -18 -39 -5 -47 4 -2 13 -2 18 2 14 10 2 50 -13
45z m4 -35 c-3 -8 -6 -5 -6 6 -1 11 2 17 5 13 3 -3 4 -12 1 -19z"/>
<path d="M4305 14841 c-3 -5 -1 -12 5 -16 5 -3 10 1 10 9 0 18 -6 21 -15 7z"/>
<path d="M3850 14779 c0 -11 4 -18 10 -14 5 3 7 12 3 20 -7 21 -13 19 -13 -6z"/>
<path d="M3850 14732 c6 -13 14 -21 18 -18 3 4 -2 14 -12 24 -18 16 -18 16 -6
-6z"/>
<path d="M4325 14710 c3 -5 8 -10 11 -10 2 0 4 5 4 10 0 6 -5 10 -11 10 -5 0
-7 -4 -4 -10z"/>
<path d="M4382 14700 c0 -14 2 -19 5 -12 2 6 2 18 0 25 -3 6 -5 1 -5 -13z"/>
<path d="M3846 14638 c-3 -17 -4 -33 -1 -36 3 -3 5 2 5 10 0 9 7 18 15 22 19
7 19 22 1 29 -9 4 -16 -5 -20 -25z"/>
<path d="M4338 14615 c2 -19 8 -38 13 -41 10 -6 0 57 -10 68 -4 5 -5 -8 -3
-27z"/>
<path d="M4365 14611 c-3 -5 -1 -12 5 -16 5 -3 10 1 10 9 0 18 -6 21 -15 7z"/>
<path d="M3841 14534 c0 -11 3 -14 6 -6 3 7 2 16 -1 19 -3 4 -6 -2 -5 -13z"/>
<path d="M3761 14384 c0 -11 3 -14 6 -6 3 7 2 16 -1 19 -3 4 -6 -2 -5 -13z"/>
<path d="M3798 14393 c7 -3 16 -2 19 1 4 3 -2 6 -13 5 -11 0 -14 -3 -6 -6z"/>
<path d="M3790 14359 c0 -17 3 -18 20 -9 11 6 20 12 20 14 0 2 -9 6 -20 9 -15
4 -20 0 -20 -14z"/>
<path d="M3768 14344 c-5 -4 -8 -14 -8 -22 0 -10 7 -12 25 -8 20 5 23 3 18
-11 -5 -14 -3 -15 7 -6 15 14 3 36 -15 29 -8 -3 -15 2 -17 10 -2 9 -6 12 -10
8z"/>
<path d="M3802 14260 c0 -14 2 -19 5 -12 2 6 2 18 0 25 -3 6 -5 1 -5 -13z"/>
<path d="M3767 14043 c-4 -3 -7 -13 -7 -22 1 -13 3 -13 11 2 11 19 8 33 -4 20z"/>
</g>
</svg>
